<svg width="48" height="48" viewBox="0 0 48 48" fill="none" xmlns="http://www.w3.org/2000/svg">
<mask id="mask0_1001_813" style="mask-type:alpha" maskUnits="userSpaceOnUse" x="0" y="0" width="48" height="48">
<rect width="48" height="48" fill="#D9D9D9"/>
</mask>
<g mask="url(#mask0_1001_813)">
<path d="M42.15 46.6L37.55 42H9.00002C8.17502 42 7.46877 41.7062 6.88127 41.1187C6.29377 40.5312 6.00002 39.825 6.00002 39V10.45L1.90002 6.34995L4.05002 4.19995L44.3 44.45L42.15 46.6ZM9.00002 39H34.55L28.55 33H12L18 26L22 31.45L24.3 28.7L9.00002 13.4V39ZM42 37.9L39 34.9V8.99995H13.1L10.1 5.99995H39C39.825 5.99995 40.5313 6.2937 41.1188 6.8812C41.7063 7.4687 42 8.17495 42 8.99995V37.9Z" fill="#7A7A7A"/>
</g>
</svg>
